<svg xmlns="http://www.w3.org/2000/svg" xmlns:xlink="http://www.w3.org/1999/xlink" width="392.5px" height="392.5px" viewBox="0 0 392.5 392.5"><path fill-rule="evenodd" stroke="rgb(0, 0, 0)" stroke-width="3px" stroke-linecap="butt" stroke-linejoin="miter" fill="rgb(0, 0, 0)" d="M279.500,389.500 L111.500,389.500 C50.749,389.500 1.500,340.251 1.500,279.500 L1.500,111.500 C1.500,50.749 50.749,1.500 111.500,1.500 L279.500,1.500 C340.251,1.500 389.500,50.749 389.500,111.500 L389.500,279.500 C389.500,340.251 340.251,389.500 279.500,389.500 ZM351.500,108.500 C351.500,69.840 320.160,38.500 281.500,38.500 L108.500,38.500 C69.840,38.500 38.500,69.840 38.500,108.500 L38.500,281.500 C38.500,320.160 69.840,351.500 108.500,351.500 L281.500,351.500 C320.160,351.500 351.500,320.160 351.500,281.500 L351.500,108.500 ZM298.000,114.500 C285.021,114.500 274.500,103.979 274.500,91.000 C274.500,78.021 285.021,67.500 298.000,67.500 C310.979,67.500 321.500,78.021 321.500,91.000 C321.500,103.979 310.979,114.500 298.000,114.500 ZM195.500,294.500 C140.272,294.500 95.500,249.728 95.500,194.500 C95.500,139.272 140.272,94.500 195.500,94.500 C250.728,94.500 295.500,139.272 295.500,194.500 C295.500,249.728 250.728,294.500 195.500,294.500 ZM195.000,129.500 C159.378,129.500 130.500,158.378 130.500,194.000 C130.500,229.622 159.378,258.500 195.000,258.500 C230.622,258.500 259.500,229.622 259.500,194.000 C259.500,158.378 230.622,129.500 195.000,129.500 Z"/></svg>