<svg width="221" height="191" viewBox="0 0 221 191" fill="none" xmlns="http://www.w3.org/2000/svg">
<path fill-rule="evenodd" clip-rule="evenodd" d="M67.0397 0.42166L112.998 121.852V123.117H94.8677L82.2187 88.1217H29.9359L17.2869 123.117H0V121.852L45.958 0.42166H67.0397ZM35.4171 73.3645H77.159L56.4988 16.4438L35.4171 73.3645ZM174.556 0.42166C184.254 0.42166 192.687 2.10822 199.433 5.05966C206.179 8.0111 211.239 12.6491 214.612 18.1303C217.985 23.6116 219.671 30.3578 219.671 37.5255C219.671 45.115 217.985 51.8611 214.612 57.7639C211.239 63.6668 205.758 68.7264 199.011 72.0995C191.844 75.8942 183.411 77.5808 173.292 77.5808H151.367V122.696H134.08V0H174.556V0.42166ZM172.027 62.8236C182.146 62.8236 189.314 60.7154 194.373 56.4991C199.433 52.2827 201.963 45.9582 201.963 38.3687C201.963 30.7793 199.855 24.8764 195.217 21.0817C190.579 17.287 183.832 15.1789 174.556 15.1789H151.367V62.8236H172.027Z" fill="white"/>
<path fill-rule="evenodd" clip-rule="evenodd" d="M5.90273 139.561C7.16763 139.561 8.43263 139.983 9.69754 140.404C10.5408 140.826 11.3841 141.669 11.8057 142.512C12.2273 143.356 12.649 144.199 12.649 145.464C12.649 146.729 12.2273 147.572 11.8057 148.415C11.3841 149.259 10.5408 150.102 9.69754 150.523C8.85427 150.945 7.58926 151.367 5.90273 151.367H2.5297V158.113H0V139.983H5.90273V139.561ZM5.48119 148.837C6.7461 148.837 8.01095 148.415 8.85422 147.994C9.69748 147.572 10.1191 146.307 10.1191 145.464C10.1191 144.199 9.69764 143.356 9.276 142.934C8.43274 142.512 7.58942 142.091 6.32451 142.091H2.95149V149.259H5.48119V148.837ZM47.6446 157.27H44.6931L39.6335 150.102H37.1038V157.27H34.5741V139.139H40.4768C41.7417 139.139 43.0065 139.561 43.8498 139.983C44.6931 140.404 45.5363 141.248 45.958 141.669C46.3796 142.512 46.8013 143.356 46.8013 144.621C46.8013 145.464 46.8014 146.307 46.3798 147.15C45.9581 147.994 45.5365 148.415 45.1149 148.837C44.2716 149.259 43.8499 149.68 42.585 150.102L47.6446 157.27ZM37.1038 148.415H40.0553C41.3202 148.415 42.5851 147.994 43.0067 147.572C43.85 147.15 44.2716 146.307 44.2716 145.042C44.2716 143.777 43.8499 143.356 43.4283 142.512C42.585 142.091 41.7417 141.669 40.4768 141.669H37.1038V148.415ZM76.3157 157.691C74.6292 157.691 72.9427 157.27 71.6778 156.426C70.4129 155.583 69.5696 154.74 68.7263 153.053C67.8831 151.788 67.883 150.102 67.883 147.994C67.883 145.885 68.3046 144.199 69.1479 142.934C69.9911 141.669 70.8344 140.404 72.0993 139.983C73.3643 139.139 75.0508 139.139 76.3157 139.139C78.0022 139.139 79.6889 139.561 80.9538 140.404C82.2187 141.248 83.0618 142.091 83.9051 143.777C84.7483 145.464 84.7484 146.729 84.7484 148.837C84.7484 150.945 84.3268 152.632 83.4835 153.896C82.6403 155.161 81.7969 156.426 80.532 156.848C79.2671 157.27 78.0022 157.691 76.3157 157.691ZM76.3157 155.583C77.5806 155.583 78.8455 155.161 79.6887 154.74C80.532 154.318 81.3753 153.475 81.7969 152.21C82.2185 150.945 82.6402 150.102 82.6402 148.415C82.6402 147.15 82.6403 145.886 82.2187 144.621C81.797 143.356 80.9538 142.512 80.1105 142.091C79.2672 141.669 78.0024 141.247 76.7375 141.247C75.4726 141.247 74.2075 141.669 73.3642 142.091C72.5209 142.512 71.6777 143.356 71.256 144.621C70.8344 145.886 70.413 146.729 70.413 148.415C70.413 149.68 70.4129 150.945 70.8345 152.21C71.2561 153.475 72.0994 154.318 72.9427 154.74C74.2076 155.161 75.0508 155.583 76.3157 155.583ZM109.625 157.691C107.517 157.691 106.252 157.27 104.565 156.005L105.83 153.896C106.252 154.318 107.095 154.74 107.517 154.74C107.938 155.161 108.781 155.161 109.203 155.161C110.046 155.161 110.89 154.74 111.311 154.318C111.733 153.897 112.155 153.053 112.155 151.788V139.139H114.685V151.788C114.685 153.053 114.263 154.318 113.841 155.161C113.42 156.005 112.576 156.426 111.733 156.848C111.311 157.691 110.468 157.691 109.625 157.691ZM140.826 155.161H149.68V157.27H138.296V139.139H149.68V141.247H140.826V146.729H148.415L147.994 148.837H140.826V155.161ZM179.616 157.691C177.93 157.691 176.243 157.27 174.978 156.426C173.713 155.583 172.87 154.74 172.027 153.053C171.605 151.788 171.183 150.102 171.183 147.994C171.183 145.885 171.605 144.199 172.448 142.512C173.292 141.248 174.135 139.983 175.4 139.561C176.665 138.718 177.93 138.718 179.616 138.718C180.881 138.718 181.724 138.718 182.568 139.139C183.411 139.561 184.254 139.983 185.519 140.404L184.254 142.512C182.989 141.669 181.303 141.247 179.616 141.247C177.508 141.247 176.243 141.669 175.4 142.934C174.556 144.199 174.135 145.885 174.135 147.994C174.135 150.102 174.556 152.21 175.4 153.475C176.243 154.74 177.93 155.583 179.616 155.583C180.459 155.583 181.303 155.583 182.146 155.161C182.989 154.74 183.833 154.74 184.254 154.318L185.097 156.005C184.254 156.426 182.989 156.848 182.146 157.27C181.724 157.691 180.459 157.691 179.616 157.691ZM220.093 139.561V141.669H214.19V157.691H211.66V141.669H205.336V139.561H220.093Z" fill="white"/>
<path fill-rule="evenodd" clip-rule="evenodd" d="M5.90272 172.448C7.16763 172.448 8.43263 172.87 9.69753 173.291C10.5408 173.713 11.3841 174.556 11.8057 175.4C12.2273 176.243 12.649 177.086 12.649 178.351C12.649 179.616 12.2273 180.459 11.8057 181.302C11.3841 182.146 10.5408 182.989 9.69753 183.411C8.85427 183.832 7.58926 184.254 5.90272 184.254H2.5297V191H0V172.87H5.90272V172.448ZM5.48119 181.302C6.7461 181.302 8.01095 180.881 8.85421 180.459C9.69748 180.038 10.1191 178.773 10.1191 177.929C10.1191 176.665 9.69764 175.821 9.276 175.4C8.43273 174.978 7.58941 174.556 6.32451 174.556H2.95149V181.724H5.48119V181.302ZM37.1038 188.049H45.958V190.157H34.5741V172.027H37.1038V188.049ZM77.5805 172.448L84.3268 190.157H81.7969L80.1105 185.097H72.5211L70.8345 190.157H68.3048L75.0508 172.448H77.5805ZM72.9427 183.411H79.2672L76.3157 174.978L72.9427 183.411ZM118.058 172.448V190.578H115.106L107.095 178.773L106.673 178.351C106.673 178.351 106.673 177.929 106.252 177.929C106.252 177.508 105.83 177.508 105.83 177.086C105.83 176.665 105.409 176.665 105.409 176.243V190.578H102.879V172.448H105.409L113.419 184.254C113.419 184.254 113.841 184.676 113.841 185.097C114.263 185.519 114.263 185.94 114.263 185.94C114.263 186.362 114.685 186.362 114.685 186.784V172.448H118.058Z" fill="white"/>
</svg>
