<svg xmlns="http://www.w3.org/2000/svg" xmlns:xlink="http://www.w3.org/1999/xlink" width="392.5px" height="392.5px" viewBox="0 0 392.5 392.5"><path fill-rule="evenodd" stroke="rgb(0, 0, 0)" stroke-width="3px" stroke-linecap="butt" stroke-linejoin="miter" fill="rgb(0, 0, 0)" d="M279.500,389.500 L111.500,389.500 C50.749,389.500 1.500,340.251 1.500,279.500 L1.500,111.500 C1.500,50.749 50.749,1.500 111.500,1.500 L279.500,1.500 C340.251,1.500 389.500,50.749 389.500,111.500 L389.500,279.500 C389.500,340.251 340.251,389.500 279.500,389.500 ZM193.959,205.373 C189.145,198.541 182.258,193.706 173.299,190.870 C179.650,187.746 184.682,183.057 188.393,176.803 C192.104,170.552 191.959,163.682 191.959,156.194 C191.959,149.288 190.455,143.054 187.446,137.492 C184.437,131.931 180.676,127.479 176.163,124.134 C171.650,120.791 166.535,118.592 160.818,117.537 C155.101,116.484 146.426,115.956 134.792,115.956 L76.020,115.956 L76.020,275.817 L126.066,275.817 C144.987,275.672 156.922,275.309 161.871,274.727 C169.760,273.783 176.397,271.256 181.780,267.148 C187.161,263.042 191.408,257.552 194.517,250.682 C197.626,243.812 199.181,236.743 199.181,229.473 C199.181,220.241 198.773,212.208 193.959,205.373 ZM295.500,123.500 L229.500,123.500 L229.500,138.500 L295.500,138.500 L295.500,123.500 ZM302.956,171.548 C292.828,160.175 279.007,154.487 261.488,154.487 C245.891,154.487 232.992,159.921 222.792,170.785 C212.591,181.651 207.491,196.677 207.491,215.864 C207.491,231.927 211.371,245.227 219.133,255.764 C228.963,268.920 244.117,275.497 264.593,275.497 C277.527,275.497 288.301,272.572 296.913,266.721 C305.524,260.871 311.827,252.349 315.818,241.156 L286.772,236.032 C285.071,241.848 281.559,246.062 278.233,248.678 C274.906,251.295 269.804,252.603 264.925,252.603 C257.755,252.603 251.767,250.079 246.963,245.026 C242.157,239.976 238.645,231.908 238.423,222.822 L316.481,222.822 C316.925,199.348 313.083,182.924 302.956,171.548 ZM246.520,183.230 C250.955,178.362 256.571,175.926 263.373,175.926 C269.729,175.926 275.126,178.234 279.561,182.849 C283.996,187.465 286.325,192.205 286.546,201.071 L238.978,201.071 C238.903,192.714 242.084,188.100 246.520,183.230 ZM155.547,241.901 C152.671,242.556 147.884,242.883 137.187,242.883 L109.707,242.883 L109.707,200.137 L133.677,200.137 C147.182,200.137 153.958,200.900 158.004,202.427 C162.049,203.953 163.141,206.390 165.281,209.733 C167.420,213.077 168.491,217.148 168.491,221.946 C168.491,227.616 167.102,232.142 164.328,235.522 C161.553,238.903 159.960,241.029 155.547,241.901 ZM150.727,176.984 C147.919,177.349 140.730,177.530 129.164,177.530 L109.707,177.530 L109.707,142.563 L126.757,142.563 C140.730,142.563 149.188,142.745 152.131,143.108 C157.078,143.763 159.806,145.635 162.314,148.724 C164.821,151.815 165.075,154.831 165.075,159.774 C165.075,164.936 164.620,168.097 161.712,171.260 C158.803,174.422 155.807,176.330 150.727,176.984 Z"/></svg>