<svg xmlns="http://www.w3.org/2000/svg" xmlns:xlink="http://www.w3.org/1999/xlink"><symbol id="icon-arr-down" viewBox="0 0 10 7"><path d="M8.824.09l-3.81 3.848L1.204.09.026 1.277l4.987 5.036L10 1.277 8.824.09z"/></symbol><symbol id="icon-arr-left" viewBox="0 0 14 20"><path d="M13.18 17.642L5.537 10l7.641-7.642L10.821 0l-10 10 10 10 2.358-2.358z"/></symbol><symbol id="icon-arr-right" viewBox="0 0 8 10"><path d="M.91 1.18L4.731 5 .911 8.82 2.088 10l5-5-5-5L.91 1.18z"/></symbol><symbol id="icon-arr-up" viewBox="0 0 16 10"><path d="M1.887 9.943L8 3.83l6.113 6.113L16 8.057l-8-8-8 8 1.887 1.886z"/></symbol><symbol id="icon-logo" viewBox="0 0 221 191"><path fill-rule="evenodd" clip-rule="evenodd" d="M67.04.422l45.958 121.43v1.265h-18.13l-12.65-34.995H29.937l-12.65 34.995H0v-1.265L45.958.422H67.04zM35.417 73.365H77.16l-20.66-56.921-21.082 56.92zM174.556.422c9.698 0 18.131 1.686 24.877 4.638 6.746 2.951 11.806 7.59 15.179 13.07 3.373 5.482 5.059 12.228 5.059 19.396 0 7.589-1.686 14.335-5.059 20.238-3.373 5.903-8.854 10.962-15.601 14.336-7.167 3.794-15.6 5.48-25.719 5.48h-21.925v45.116H134.08V0h40.476v.422zm-2.529 62.402c10.119 0 17.287-2.109 22.346-6.325 5.06-4.216 7.59-10.54 7.59-18.13s-2.108-13.493-6.746-17.287c-4.638-3.795-11.385-5.903-20.661-5.903h-23.189v47.645h20.66zM5.903 139.561c1.265 0 2.53.422 3.795.843.843.422 1.686 1.265 2.108 2.108.421.844.843 1.687.843 2.952s-.422 2.108-.843 2.951c-.422.844-1.265 1.687-2.108 2.108-.844.422-2.109.844-3.795.844H2.53v6.746H0v-18.13h5.903v-.422zm-.422 9.276c1.265 0 2.53-.422 3.373-.843.843-.422 1.265-1.687 1.265-2.53 0-1.265-.421-2.108-.843-2.53-.843-.422-1.687-.843-2.951-.843H2.95v7.168h2.53v-.422zm42.164 8.433h-2.952l-5.06-7.168h-2.53v7.168h-2.529v-18.131h5.903c1.265 0 2.53.422 3.373.844.843.421 1.686 1.265 2.108 1.686.422.843.843 1.687.843 2.952 0 .843 0 1.686-.421 2.529-.422.844-.844 1.265-1.265 1.687-.843.422-1.265.843-2.53 1.265l5.06 7.168zm-10.541-8.855h2.951c1.265 0 2.53-.421 2.952-.843.843-.422 1.265-1.265 1.265-2.53s-.422-1.686-.844-2.53c-.843-.421-1.686-.843-2.951-.843h-3.373v6.746zm39.212 9.276c-1.687 0-3.373-.421-4.638-1.265-1.265-.843-2.108-1.686-2.952-3.373-.843-1.265-.843-2.951-.843-5.059 0-2.109.422-3.795 1.265-5.06.843-1.265 1.686-2.53 2.951-2.951 1.265-.844 2.952-.844 4.217-.844 1.686 0 3.373.422 4.638 1.265 1.265.844 2.108 1.687 2.951 3.373.843 1.687.843 2.952.843 5.06 0 2.108-.421 3.795-1.264 5.059-.844 1.265-1.687 2.53-2.952 2.952-1.265.422-2.53.843-4.216.843zm0-2.108c1.265 0 2.53-.422 3.373-.843.843-.422 1.686-1.265 2.108-2.53.422-1.265.843-2.108.843-3.795 0-1.265 0-2.529-.421-3.794-.422-1.265-1.265-2.109-2.108-2.53-.844-.422-2.109-.844-3.374-.844-1.264 0-2.53.422-3.373.844-.843.421-1.686 1.265-2.108 2.53-.422 1.265-.843 2.108-.843 3.794 0 1.265 0 2.53.422 3.795.421 1.265 1.264 2.108 2.108 2.53 1.265.421 2.108.843 3.373.843zm33.309 2.108c-2.108 0-3.373-.421-5.06-1.686l1.265-2.109c.422.422 1.265.844 1.687.844.421.421 1.264.421 1.686.421.843 0 1.687-.421 2.108-.843.422-.421.844-1.265.844-2.53v-12.649h2.53v12.649c0 1.265-.422 2.53-.844 3.373-.421.844-1.265 1.265-2.108 1.687-.422.843-1.265.843-2.108.843zm31.201-2.53h8.854v2.109h-11.384v-18.131h11.384v2.108h-8.854v5.482h7.589l-.421 2.108h-7.168v6.324zm38.79 2.53c-1.686 0-3.373-.421-4.638-1.265-1.265-.843-2.108-1.686-2.951-3.373a15.71 15.71 0 01-.844-5.059c0-2.109.422-3.795 1.265-5.482.844-1.264 1.687-2.529 2.952-2.951 1.265-.843 2.53-.843 4.216-.843 1.265 0 2.108 0 2.952.421.843.422 1.686.844 2.951 1.265l-1.265 2.108c-1.265-.843-2.951-1.265-4.638-1.265-2.108 0-3.373.422-4.216 1.687-.844 1.265-1.265 2.951-1.265 5.06 0 2.108.421 4.216 1.265 5.481.843 1.265 2.53 2.108 4.216 2.108.843 0 1.687 0 2.53-.422.843-.421 1.687-.421 2.108-.843l.843 1.687c-.843.421-2.108.843-2.951 1.265-.422.421-1.687.421-2.53.421zm40.477-18.13v2.108h-5.903v16.022h-2.53v-16.022h-6.324v-2.108h14.757zM5.903 172.448c1.265 0 2.53.422 3.795.843.843.422 1.686 1.265 2.108 2.109.421.843.843 1.686.843 2.951 0 1.265-.422 2.108-.843 2.951-.422.844-1.265 1.687-2.108 2.109-.844.421-2.109.843-3.795.843H2.53V191H0v-18.13h5.903v-.422zm-.422 8.854c1.265 0 2.53-.421 3.373-.843.843-.421 1.265-1.686 1.265-2.53 0-1.264-.421-2.108-.843-2.529-.843-.422-1.687-.844-2.951-.844H2.95v7.168h2.53v-.422zm31.623 6.747h8.854v2.108H34.574v-18.13h2.53v16.022zm40.477-15.601l6.746 17.709h-2.53l-1.686-5.06h-7.59l-1.686 5.06h-2.53l6.746-17.709h2.53zm-4.638 10.963h6.324l-2.951-8.433-3.373 8.433zm45.115-10.963v18.13h-2.952l-8.011-11.805-.422-.422s0-.422-.421-.422c0-.421-.422-.421-.422-.843 0-.421-.421-.421-.421-.843v14.335h-2.53v-18.13h2.53l8.01 11.806s.422.422.422.843c.422.422.422.843.422.843 0 .422.422.422.422.844v-14.336h3.373z"/></symbol><symbol id="icon-menu-close" viewBox="0 0 20 20"><path d="M11.173 10.006l8.573-8.573A.833.833 0 1018.568.255L9.995 8.828 1.422.255A.833.833 0 00.244 1.433l8.573 8.573-8.573 8.573a.833.833 0 001.178 1.178l8.573-8.574 8.573 8.574a.833.833 0 001.178-1.178l-8.573-8.573z"/></symbol><symbol id="icon-menu-open" viewBox="0 0 30 30"><path d="M28.75 16.224H1.25a1.25 1.25 0 010-2.5h27.5a1.25 1.25 0 010 2.5zM28.75 6.64H1.25a1.25 1.25 0 010-2.5h27.5a1.25 1.25 0 010 2.5zM28.75 25.807H1.25a1.25 1.25 0 010-2.5h27.5a1.25 1.25 0 010 2.5z"/></symbol><symbol id="icon-soc-be" viewBox="0 0 392.5 392.5"><path fill-rule="evenodd" stroke-width="3" d="M279.5 389.5h-168c-60.751 0-110-49.249-110-110v-168c0-60.751 49.249-110 110-110h168c60.751 0 110 49.249 110 110v168c0 60.751-49.249 110-110 110zm-85.541-184.127c-4.814-6.832-11.701-11.667-20.66-14.503 6.351-3.124 11.383-7.813 15.094-14.067 3.711-6.251 3.566-13.121 3.566-20.609 0-6.906-1.504-13.14-4.513-18.702-3.009-5.561-6.77-10.013-11.283-13.358-4.513-3.343-9.628-5.542-15.345-6.597-5.717-1.053-14.392-1.581-26.026-1.581H76.02v159.861h50.046c18.921-.145 30.856-.508 35.805-1.09 7.889-.944 14.526-3.471 19.909-7.579 5.381-4.106 9.628-9.596 12.737-16.466 3.109-6.87 4.664-13.939 4.664-21.209 0-9.232-.408-17.265-5.222-24.1zM295.5 123.5h-66v15h66v-15zm7.456 48.048c-10.128-11.373-23.949-17.061-41.468-17.061-15.597 0-28.496 5.434-38.696 16.298-10.201 10.866-15.301 25.892-15.301 45.079 0 16.063 3.88 29.363 11.642 39.9 9.83 13.156 24.984 19.733 45.46 19.733 12.934 0 23.708-2.925 32.32-8.776 8.611-5.85 14.914-14.372 18.905-25.565l-29.046-5.124c-1.701 5.816-5.213 10.03-8.539 12.646-3.327 2.617-8.429 3.925-13.308 3.925-7.17 0-13.158-2.524-17.962-7.577-4.806-5.05-8.318-13.118-8.54-22.204h78.058c.444-23.474-3.398-39.898-13.525-51.274zM246.52 183.23c4.435-4.868 10.051-7.304 16.853-7.304 6.356 0 11.753 2.308 16.188 6.923 4.435 4.616 6.764 9.356 6.985 18.222h-47.568c-.075-8.357 3.106-12.971 7.542-17.841zm-90.973 58.671c-2.876.655-7.663.982-18.36.982h-27.48v-42.746h23.97c13.505 0 20.281.763 24.327 2.29 4.045 1.526 5.137 3.963 7.277 7.306 2.139 3.344 3.21 7.415 3.21 12.213 0 5.67-1.389 10.196-4.163 13.576-2.775 3.381-4.368 5.507-8.781 6.379zm-4.82-64.917c-2.808.365-9.997.546-21.563.546h-19.457v-34.967h17.05c13.973 0 22.431.182 25.374.545 4.947.655 7.675 2.527 10.183 5.616 2.507 3.091 2.761 6.107 2.761 11.05 0 5.162-.455 8.323-3.363 11.486-2.909 3.162-5.905 5.07-10.985 5.724z"/></symbol><symbol id="icon-soc-fb" viewBox="0 0 16 16"><path d="M11.987 0H4C1.803 0 0 1.803 0 4.013V12c0 2.197 1.803 4 4 4h7.987A4.021 4.021 0 0016 11.987V4.013A4.021 4.021 0 0011.987 0zm-1.841 8H8.635v4.952H6.73V8H5.714V5.968h.89v-.863c0-.813.406-2.095 2.12-2.095h1.562v1.688H9.18c-.178 0-.42.115-.42.508v.762h1.563L10.146 8z"/></symbol><symbol id="icon-soc-in" viewBox="0 0 16 16"><path d="M11.978.006H4.01A4.018 4.018 0 000 4.016v7.98c0 2.195 1.802 3.997 4.01 3.997h7.98a4.018 4.018 0 004.01-4.01V4.015c-.013-2.208-1.814-4.01-4.022-4.01zM5.329 12.948H3.045V6.35H5.33v6.598zM4.174 5.335c-.647 0-1.167-.52-1.167-1.168C3.007 3.52 3.527 3 4.174 3c.648 0 1.168.52 1.168 1.167a1.18 1.18 0 01-1.168 1.168zm8.78 7.613H11.04V9.75c0-.774-.102-1.763-1.155-1.763-1.078 0-1.256.837-1.256 1.713v3.248H6.725V6.35H8.5v.888h.05c.28-.508.927-.9 1.942-.9 2.094 0 2.462 1.204 2.462 2.994v3.616z"/></symbol><symbol id="icon-soc-inst" viewBox="0 0 392.5 392.5"><path fill-rule="evenodd" stroke-width="3" d="M279.5 389.5h-168c-60.751 0-110-49.249-110-110v-168c0-60.751 49.249-110 110-110h168c60.751 0 110 49.249 110 110v168c0 60.751-49.249 110-110 110zm72-281c0-38.66-31.34-70-70-70h-173c-38.66 0-70 31.34-70 70v173c0 38.66 31.34 70 70 70h173c38.66 0 70-31.34 70-70v-173zm-53.5 6c-12.979 0-23.5-10.521-23.5-23.5s10.521-23.5 23.5-23.5 23.5 10.521 23.5 23.5-10.521 23.5-23.5 23.5zm-102.5 180c-55.228 0-100-44.772-100-100s44.772-100 100-100 100 44.772 100 100-44.772 100-100 100zm-.5-165c-35.622 0-64.5 28.878-64.5 64.5s28.878 64.5 64.5 64.5 64.5-28.878 64.5-64.5-28.878-64.5-64.5-64.5z"/></symbol><symbol id="icon-soc-pin" viewBox="0 0 16 16"><path d="M11.987 0H4C1.803 0 0 1.803 0 4.013V12c0 2.197 1.803 4 4 4h7.987A4.021 4.021 0 0016 11.987V4.013A4.021 4.021 0 0011.987 0zM8.8 10.222c-.635 0-1.244-.33-1.448-.71 0 0-.342 1.32-.419 1.574-.254.901-1.016 1.803-1.066 1.88a.078.078 0 01-.14-.039c-.013-.114-.203-1.257.013-2.184l.762-3.124s-.19-.368-.19-.902c0-.85.507-1.485 1.142-1.485.533 0 .8.393.8.863 0 .52-.343 1.308-.52 2.032-.153.61.317 1.105.939 1.105 1.117 0 1.88-1.397 1.88-3.048 0-1.257-.877-2.197-2.464-2.197-1.79 0-2.92 1.296-2.92 2.743 0 .495.152.85.393 1.13.114.127.127.178.089.318a6.134 6.134 0 01-.127.457c-.038.14-.165.203-.292.14-.826-.33-1.207-1.207-1.207-2.197 0-1.626 1.423-3.581 4.229-3.581 2.26 0 3.746 1.587 3.746 3.289-.013 2.26-1.295 3.936-3.2 3.936z"/></symbol><symbol id="icon-soc-wapp" viewBox="0 0 16 16"><path d="M8.083 3.788c-2.272 0-4.111 1.827-4.111 4.085 0 .888.292 1.726.786 2.398l-.52 1.523 1.586-.508a4.085 4.085 0 002.271.673c2.272 0 4.124-1.827 4.124-4.086-.013-2.258-1.865-4.085-4.136-4.085zm2.41 5.773c-.101.279-.596.545-.812.57-.215.026-.215.178-1.446-.291-1.218-.482-1.992-1.713-2.056-1.802-.063-.076-.494-.647-.494-1.23 0-.584.304-.876.418-.99a.48.48 0 01.318-.153c.076 0 .164.013.228.013.076 0 .165-.038.266.203.102.241.343.825.368.888.026.064.051.127.013.203-.038.076-.063.127-.114.203-.064.064-.127.153-.178.203-.063.064-.127.127-.05.241.076.115.317.508.672.825.457.406.85.533.964.597.114.063.19.05.254-.026.076-.076.305-.342.38-.47.077-.113.166-.1.267-.063.114.038.698.33.825.394.114.063.203.088.228.14.038.025.038.266-.05.545z"/><path d="M11.978.006H4.01A4.018 4.018 0 000 4.016v7.98c0 2.196 1.802 3.997 4.01 3.997h7.98a4.018 4.018 0 004.01-4.01V4.017c-.013-2.208-1.814-4.01-4.022-4.01zM8.082 12.732a4.854 4.854 0 01-2.372-.608l-2.716.862.889-2.6a4.855 4.855 0 01-.698-2.513c0-2.69 2.195-4.86 4.897-4.86 2.703 0 4.898 2.17 4.898 4.86 0 2.69-2.195 4.86-4.898 4.86z"/></symbol> <view id="icon-arr-down-view-blue" viewBox="0 0 10 7"/><view id="icon-arr-down-view-cyan" viewBox="0 17 10 7"/><view id="icon-arr-down-view-white" viewBox="0 34 10 7"/><view id="icon-arr-down-view-black" viewBox="0 51 10 7"/><view id="icon-arr-left-view-blue" viewBox="0 68 14 20"/><view id="icon-arr-left-view-cyan" viewBox="0 98 14 20"/><view id="icon-arr-left-view-white" viewBox="0 128 14 20"/><view id="icon-arr-left-view-black" viewBox="0 158 14 20"/><view id="icon-arr-right-view-blue" viewBox="0 188 8 10"/><view id="icon-arr-right-view-cyan" viewBox="0 208 8 10"/><view id="icon-arr-right-view-white" viewBox="0 228 8 10"/><view id="icon-arr-right-view-black" viewBox="0 248 8 10"/><view id="icon-arr-up-view-blue" viewBox="0 268 16 10"/><view id="icon-arr-up-view-cyan" viewBox="0 288 16 10"/><view id="icon-arr-up-view-white" viewBox="0 308 16 10"/><view id="icon-arr-up-view-black" viewBox="0 328 16 10"/><view id="icon-logo-view-blue" viewBox="0 348 221 191"/><view id="icon-logo-view-cyan" viewBox="0 549 221 191"/><view id="icon-logo-view-white" viewBox="0 750 221 191"/><view id="icon-logo-view-black" viewBox="0 951 221 191"/><view id="icon-menu-close-view-blue" viewBox="0 1152 20 20"/><view id="icon-menu-close-view-cyan" viewBox="0 1182 20 20"/><view id="icon-menu-close-view-white" viewBox="0 1212 20 20"/><view id="icon-menu-close-view-black" viewBox="0 1242 20 20"/><view id="icon-menu-open-view-blue" viewBox="0 1272 30 30"/><view id="icon-menu-open-view-cyan" viewBox="0 1312 30 30"/><view id="icon-menu-open-view-white" viewBox="0 1352 30 30"/><view id="icon-menu-open-view-black" viewBox="0 1392 30 30"/><view id="icon-soc-be-view-blue" viewBox="0 1432 392.5 392.5"/><view id="icon-soc-be-view-cyan" viewBox="0 1834.5 392.5 392.5"/><view id="icon-soc-be-view-white" viewBox="0 2237 392.5 392.5"/><view id="icon-soc-be-view-black" viewBox="0 2639.5 392.5 392.5"/><view id="icon-soc-fb-view-blue" viewBox="0 3042 16 16"/><view id="icon-soc-fb-view-cyan" viewBox="0 3068 16 16"/><view id="icon-soc-fb-view-white" viewBox="0 3094 16 16"/><view id="icon-soc-fb-view-black" viewBox="0 3120 16 16"/><view id="icon-soc-in-view-blue" viewBox="0 3146 16 16"/><view id="icon-soc-in-view-cyan" viewBox="0 3172 16 16"/><view id="icon-soc-in-view-white" viewBox="0 3198 16 16"/><view id="icon-soc-in-view-black" viewBox="0 3224 16 16"/><view id="icon-soc-inst-view-blue" viewBox="0 3250 392.5 392.5"/><view id="icon-soc-inst-view-cyan" viewBox="0 3652.5 392.5 392.5"/><view id="icon-soc-inst-view-white" viewBox="0 4055 392.5 392.5"/><view id="icon-soc-inst-view-black" viewBox="0 4457.5 392.5 392.5"/><view id="icon-soc-pin-view-blue" viewBox="0 4860 16 16"/><view id="icon-soc-pin-view-cyan" viewBox="0 4886 16 16"/><view id="icon-soc-pin-view-white" viewBox="0 4912 16 16"/><view id="icon-soc-pin-view-black" viewBox="0 4938 16 16"/><view id="icon-soc-wapp-view-blue" viewBox="0 4964 16 16"/><view id="icon-soc-wapp-view-cyan" viewBox="0 4990 16 16"/><view id="icon-soc-wapp-view-white" viewBox="0 5016 16 16"/><view id="icon-soc-wapp-view-black" viewBox="0 5042 16 16"/> <use xlink:href="#icon-arr-down" x="0" y="0" width="10" height="7" style="fill:#00a0e3"/><use xlink:href="#icon-arr-down" x="0" y="17" width="10" height="7" style="fill:#5ecfff"/><use xlink:href="#icon-arr-down" x="0" y="34" width="10" height="7" style="fill:#ffffff"/><use xlink:href="#icon-arr-down" x="0" y="51" width="10" height="7" style="fill:#000000"/><use xlink:href="#icon-arr-left" x="0" y="68" width="14" height="20" style="fill:#00a0e3"/><use xlink:href="#icon-arr-left" x="0" y="98" width="14" height="20" style="fill:#5ecfff"/><use xlink:href="#icon-arr-left" x="0" y="128" width="14" height="20" style="fill:#ffffff"/><use xlink:href="#icon-arr-left" x="0" y="158" width="14" height="20" style="fill:#000000"/><use xlink:href="#icon-arr-right" x="0" y="188" width="8" height="10" style="fill:#00a0e3"/><use xlink:href="#icon-arr-right" x="0" y="208" width="8" height="10" style="fill:#5ecfff"/><use xlink:href="#icon-arr-right" x="0" y="228" width="8" height="10" style="fill:#ffffff"/><use xlink:href="#icon-arr-right" x="0" y="248" width="8" height="10" style="fill:#000000"/><use xlink:href="#icon-arr-up" x="0" y="268" width="16" height="10" style="fill:#00a0e3"/><use xlink:href="#icon-arr-up" x="0" y="288" width="16" height="10" style="fill:#5ecfff"/><use xlink:href="#icon-arr-up" x="0" y="308" width="16" height="10" style="fill:#ffffff"/><use xlink:href="#icon-arr-up" x="0" y="328" width="16" height="10" style="fill:#000000"/><use xlink:href="#icon-logo" x="0" y="348" width="221" height="191" style="fill:#00a0e3"/><use xlink:href="#icon-logo" x="0" y="549" width="221" height="191" style="fill:#5ecfff"/><use xlink:href="#icon-logo" x="0" y="750" width="221" height="191" style="fill:#ffffff"/><use xlink:href="#icon-logo" x="0" y="951" width="221" height="191" style="fill:#000000"/><use xlink:href="#icon-menu-close" x="0" y="1152" width="20" height="20" style="fill:#00a0e3"/><use xlink:href="#icon-menu-close" x="0" y="1182" width="20" height="20" style="fill:#5ecfff"/><use xlink:href="#icon-menu-close" x="0" y="1212" width="20" height="20" style="fill:#ffffff"/><use xlink:href="#icon-menu-close" x="0" y="1242" width="20" height="20" style="fill:#000000"/><use xlink:href="#icon-menu-open" x="0" y="1272" width="30" height="30" style="fill:#00a0e3"/><use xlink:href="#icon-menu-open" x="0" y="1312" width="30" height="30" style="fill:#5ecfff"/><use xlink:href="#icon-menu-open" x="0" y="1352" width="30" height="30" style="fill:#ffffff"/><use xlink:href="#icon-menu-open" x="0" y="1392" width="30" height="30" style="fill:#000000"/><use xlink:href="#icon-soc-be" x="0" y="1432" width="392.5" height="392.5" style="fill:#00a0e3"/><use xlink:href="#icon-soc-be" x="0" y="1834.5" width="392.5" height="392.5" style="fill:#5ecfff"/><use xlink:href="#icon-soc-be" x="0" y="2237" width="392.5" height="392.5" style="fill:#ffffff"/><use xlink:href="#icon-soc-be" x="0" y="2639.5" width="392.5" height="392.5" style="fill:#000000"/><use xlink:href="#icon-soc-fb" x="0" y="3042" width="16" height="16" style="fill:#00a0e3"/><use xlink:href="#icon-soc-fb" x="0" y="3068" width="16" height="16" style="fill:#5ecfff"/><use xlink:href="#icon-soc-fb" x="0" y="3094" width="16" height="16" style="fill:#ffffff"/><use xlink:href="#icon-soc-fb" x="0" y="3120" width="16" height="16" style="fill:#000000"/><use xlink:href="#icon-soc-in" x="0" y="3146" width="16" height="16" style="fill:#00a0e3"/><use xlink:href="#icon-soc-in" x="0" y="3172" width="16" height="16" style="fill:#5ecfff"/><use xlink:href="#icon-soc-in" x="0" y="3198" width="16" height="16" style="fill:#ffffff"/><use xlink:href="#icon-soc-in" x="0" y="3224" width="16" height="16" style="fill:#000000"/><use xlink:href="#icon-soc-inst" x="0" y="3250" width="392.5" height="392.5" style="fill:#00a0e3"/><use xlink:href="#icon-soc-inst" x="0" y="3652.5" width="392.5" height="392.5" style="fill:#5ecfff"/><use xlink:href="#icon-soc-inst" x="0" y="4055" width="392.5" height="392.5" style="fill:#ffffff"/><use xlink:href="#icon-soc-inst" x="0" y="4457.5" width="392.5" height="392.5" style="fill:#000000"/><use xlink:href="#icon-soc-pin" x="0" y="4860" width="16" height="16" style="fill:#00a0e3"/><use xlink:href="#icon-soc-pin" x="0" y="4886" width="16" height="16" style="fill:#5ecfff"/><use xlink:href="#icon-soc-pin" x="0" y="4912" width="16" height="16" style="fill:#ffffff"/><use xlink:href="#icon-soc-pin" x="0" y="4938" width="16" height="16" style="fill:#000000"/><use xlink:href="#icon-soc-wapp" x="0" y="4964" width="16" height="16" style="fill:#00a0e3"/><use xlink:href="#icon-soc-wapp" x="0" y="4990" width="16" height="16" style="fill:#5ecfff"/><use xlink:href="#icon-soc-wapp" x="0" y="5016" width="16" height="16" style="fill:#ffffff"/><use xlink:href="#icon-soc-wapp" x="0" y="5042" width="16" height="16" style="fill:#000000"/></svg>